<svg width="86" height="91" viewBox="0 0 86 91" fill="none" xmlns="http://www.w3.org/2000/svg">
<path fill-rule="evenodd" clip-rule="evenodd" d="M71.815 2.90204C69.298 4.49804 66.934 6.29804 66.56 6.90204C66.14 7.58304 62.018 8.00004 55.715 8.00004H45.548L22.774 30.774C5.75 47.798 0 54.153 0 55.944C0 57.683 3.767 62.141 13.731 72.197C26.528 85.113 27.7 86.041 30.981 85.865C33.12 85.749 35.873 86.522 38 87.834C45.405 92.401 45.357 92.447 62 65C68.17 54.825 74.406 44.925 75.859 43C78.349 39.699 78.482 38.957 78.194 29.956C77.914 21.232 78.074 20.243 80.05 18.456C81.24 17.38 83.065 14.83 84.106 12.79C89.524 2.17504 82.223 -3.69796 71.815 2.90204ZM82.8 3.20004C85.216 5.61604 83.403 12.761 79.566 15.945C78.238 17.047 78 16.956 78 15.345C78 12.295 75.317 9.31304 71.97 8.64404C68.291 7.90804 68.776 6.69604 73.815 4.03504C78.084 1.78004 81.1 1.50004 82.8 3.20004ZM74.581 12.441C77.045 15.812 76.377 19.754 73.05 21.474C69.175 23.478 68.262 23.4 67.501 21.002C66.717 18.533 62.504 17.337 60.487 19.011C58.306 20.821 58.674 24.659 61.2 26.427C63.151 27.794 63.655 27.801 65.665 26.484C66.91 25.668 68.508 24.997 69.215 24.994C69.922 24.99 71.737 24.342 73.25 23.553L76 22.119L76.014 27.809C76.021 30.939 76.306 34.542 76.648 35.816C77.182 37.812 74.112 41.298 54.413 61.066C41.842 73.68 30.876 84 30.042 84C28.069 84 2 57.991 2 56.022C2 55.194 12.013 44.471 24.25 32.194L46.5 9.87204L59.831 10.186C71.664 10.465 73.322 10.718 74.581 12.441ZM44.188 19.063C44.428 19.784 45.216 20.572 45.938 20.813C46.688 21.063 47.063 20.688 46.813 19.938C46.572 19.216 45.784 18.428 45.063 18.188C44.313 17.938 43.938 18.313 44.188 19.063ZM65.5 22.514C65.5 23.812 64.721 24.611 63.25 24.82C61.593 25.055 61 24.638 61 23.236C61 22.19 61.316 21.018 61.701 20.632C63.028 19.306 65.5 20.53 65.5 22.514ZM49 23.878C49 25.181 51.583 27.084 52.333 26.333C53.084 25.583 51.181 23 49.878 23C49.395 23 49 23.395 49 23.878ZM54.629 28.791C53.904 29.964 56.756 32.578 57.715 31.619C58.081 31.252 57.673 30.245 56.809 29.38C55.874 28.445 54.991 28.206 54.629 28.791ZM60.262 35.69C61.192 36.62 62.233 37.1 62.576 36.757C63.561 35.773 62.05 34 60.227 34C58.7 34 58.703 34.132 60.262 35.69ZM30 36.5C29.315 37.325 28 38 27.078 38C25.001 38 23 39.907 23 41.886C23 42.703 22.038 44.395 20.862 45.646C18.972 47.659 18.867 48.264 19.953 50.887C20.629 52.518 20.884 54.789 20.521 55.933C20.01 57.544 20.517 58.39 22.769 59.682C24.368 60.6 26.088 62.285 26.591 63.426C27.204 64.819 28.324 65.441 30.002 65.319C31.376 65.219 33.755 65.619 35.289 66.206C37.632 67.104 38.432 66.947 40.289 65.225C41.505 64.098 43.625 63.023 45 62.838C46.792 62.596 47.596 61.792 47.838 60C48.023 58.625 49.074 56.53 50.173 55.344C51.776 53.616 51.956 52.787 51.086 51.16C50.489 50.044 50 47.742 50 46.044C50 43.76 49.379 42.674 47.61 41.868C46.296 41.269 44.708 39.655 44.082 38.28C43.15 36.235 42.395 35.862 39.928 36.224C38.269 36.467 36.68 36.292 36.397 35.833C35.545 34.455 31.333 34.894 30 36.5ZM39 38.347C43.104 38.598 47.567 43.786 48.3 49.154C48.774 52.625 48.562 54.119 47.468 55.027C46.66 55.697 46 57.315 46 58.622C46 60.276 45.432 61 44.135 61C43.109 61 41.07 61.944 39.604 63.097C37.462 64.782 36.651 64.955 35.475 63.979C34.67 63.311 32.849 62.987 31.428 63.259C29.419 63.642 28.605 63.228 27.77 61.395C27.18 60.099 25.865 58.774 24.848 58.452C23.553 58.041 23 56.898 23 54.633C23 52.855 22.466 50.866 21.813 50.213C20.898 49.298 21.103 48.51 22.713 46.763C23.861 45.518 24.962 43.6 25.16 42.5C25.365 41.361 26.453 40.367 27.688 40.19C28.88 40.019 30.419 39.201 31.108 38.37C31.899 37.417 33.122 37.106 34.43 37.527C35.569 37.893 37.625 38.262 39 38.347ZM65.188 40.063C65.428 40.784 66.216 41.572 66.938 41.813C67.688 42.063 68.063 41.688 67.813 40.938C67.572 40.216 66.784 39.428 66.063 39.188C65.313 38.938 64.938 39.313 65.188 40.063ZM38.121 44.002C33.709 45.044 31.305 48.834 34 50.5C35.315 51.313 35.285 54.706 33.956 55.527C32.325 56.535 30.15 54.141 30.72 51.963C31.004 50.878 30.734 50 30.117 50C28.908 50 28.909 49.998 28.513 54.648C28.256 57.656 28.4 57.789 31.765 57.648C36.273 57.459 37.882 55.174 36.355 51.13C35.058 47.693 36.081 45.433 38.513 46.366C39.628 46.794 40.045 47.719 39.707 49.011C39.135 51.201 40.769 52.92 41.421 50.813C42.405 47.632 42.887 43.009 42.225 43.102C41.826 43.159 39.979 43.564 38.121 44.002ZM66.789 53.25C65.996 54.487 61.378 62.025 56.526 70C44.272 90.143 44.865 89.623 38.469 85.849L34.824 83.698L51.151 67.349C60.13 58.357 67.647 51 67.854 51C68.061 51 67.581 52.013 66.789 53.25Z" fill="#FECC52"/>
</svg>
