<svg width="90" height="90" viewBox="0 0 90 90" fill="none" xmlns="http://www.w3.org/2000/svg">
<path fill-rule="evenodd" clip-rule="evenodd" d="M51.702 0.632002C51.316 1.018 51 4.633 51 8.667V16H45H39L38.996 12.75C38.993 10.093 38.147 8.816 34.358 5.75C31.809 3.688 29.449 2.003 29.112 2.006C28.775 2.01 26.362 3.845 23.75 6.084C19.084 10.083 19 10.26 19 16.03V21.905L12.75 22.202L6.5 22.5L6.217 33.75C5.977 43.313 6.164 45 7.467 45C8.742 45 9 43.317 9 35V25H14H19V35C19 43.222 19.267 45 20.5 45C21.774 45 22 42.453 22 28.073V11.146L25.669 8.122L29.337 5.098L32.596 7.799L35.856 10.5L35.928 27.75C35.989 42.385 36.227 45 37.5 45C38.756 45 39 42.889 39 32V19H45H51V32C51 42.889 51.244 45 52.5 45C53.786 45 54 42 54 24V3H61H68V24C68 42 68.214 45 69.5 45C70.728 45 71 43.278 71 35.5V26H76H81V35.5C81 43.371 81.263 45 82.534 45C83.835 45 84.025 43.368 83.784 34.25L83.5 23.5L77.282 23.203L71.065 22.906L70.782 11.703L70.5 0.500002L61.452 0.215002C56.475 0.0580021 52.087 0.246002 51.702 0.632002ZM56.229 9.188C56.847 11.042 59 11.349 59 9.583C59 8.713 58.288 8 57.417 8C56.546 8 56.011 8.534 56.229 9.188ZM62.229 9.188C62.847 11.042 65 11.349 65 9.583C65 8.713 64.287 8 63.417 8C62.546 8 62.011 8.534 62.229 9.188ZM25 14.443C25 15.626 26.101 16 29.583 16C35.485 16 35.139 13.632 29.172 13.193C25.93 12.954 25 13.232 25 14.443ZM56.229 16.188C56.847 18.042 59 18.349 59 16.583C59 15.712 58.288 15 57.417 15C56.546 15 56.011 15.534 56.229 16.188ZM62.229 16.188C62.847 18.042 65 18.349 65 16.583C65 15.712 64.287 15 63.417 15C62.546 15 62.011 15.534 62.229 16.188ZM25 21.443C25 22.626 26.101 23 29.583 23C35.485 23 35.139 20.632 29.172 20.193C25.93 19.954 25 20.232 25 21.443ZM56.229 23.188C56.847 25.042 59 25.349 59 23.583C59 22.712 58.288 22 57.417 22C56.546 22 56.011 22.534 56.229 23.188ZM62 23.5C62 24.325 62.675 25 63.5 25C64.325 25 65 24.325 65 23.5C65 22.675 64.325 22 63.5 22C62.675 22 62 22.675 62 23.5ZM0 49.51C0 50.839 5.379 50.989 44.667 50.76C79.324 50.558 89.427 50.22 89.75 49.25C90.079 48.262 80.705 48 45.083 48C5.539 48 0 48.186 0 49.51ZM2.33 53.694C1.482 53.998 1.653 55.544 2.951 59.307C4.607 64.109 4.965 64.482 7.717 64.267C10.098 64.081 11.3 64.789 13.731 67.815C16.431 71.175 16.615 71.806 15.385 73.489C13.246 76.414 13.66 77.416 18.413 80.83C23.495 84.48 25.514 84.777 26.953 82.088C27.931 80.259 28.194 80.246 32.988 81.779C37.366 83.179 38 83.722 38 86.074C38 88.95 39.889 89.96 45.316 89.986C49.346 90.006 52 88.286 52 85.656C52 83.806 52.935 83.083 57.012 81.779C61.806 80.246 62.069 80.259 63.047 82.088C64.486 84.777 66.505 84.48 71.587 80.83C76.348 77.411 76.755 76.415 74.6 73.467C73.359 71.771 73.473 71.226 75.6 68.699C76.92 67.13 78 65.412 78 64.88C78 64.348 79.635 64.045 81.633 64.207C85.186 64.494 85.304 64.387 87.047 59.324C88.502 55.096 88.581 54.053 87.479 53.63C86.585 53.287 85.657 54.528 84.731 57.306C83.464 61.103 83.051 61.471 80.369 61.196C77.768 60.929 76.939 61.571 73.567 66.467C69.929 71.749 69.816 72.139 71.416 73.907C73.019 75.678 72.938 75.904 69.821 78.343L66.537 80.913L64.395 78.902C62.287 76.921 62.172 76.918 56.877 78.717C49.74 81.142 49 81.691 49 84.559C49 86.74 48.574 87 45 87C41.426 87 41 86.74 41 84.559C41 81.689 40.262 81.143 33.093 78.707C27.761 76.896 27.658 76.898 25.673 78.882L23.661 80.895L20.58 78.771C18.886 77.603 17.352 76.541 17.17 76.411C16.989 76.28 17.568 75.063 18.456 73.707C19.986 71.372 19.945 71.087 17.685 68.37C16.372 66.791 14.748 64.457 14.077 63.182C13.131 61.386 12.165 60.936 9.78 61.182C6.996 61.47 6.573 61.126 5.343 57.575C3.77 53.033 3.857 53.146 2.33 53.694ZM17.355 53.788C15.44 54.983 19.743 62.584 25.022 67.33C39.519 80.364 62.721 76.133 71.558 58.845C73.449 55.146 73.655 54.082 72.562 53.662C71.696 53.33 70.7 54.309 69.872 56.31C69.148 58.056 66.969 61.247 65.028 63.4C52.406 77.403 28.961 73.933 20.358 56.788C19.215 54.51 18.055 53.351 17.355 53.788Z" fill="#FECC52"/>
</svg>
