<svg width="92" height="91" viewBox="0 0 92 91" fill="none" xmlns="http://www.w3.org/2000/svg">
<path fill-rule="evenodd" clip-rule="evenodd" d="M11.999 11.501L0.530029 23.002L13.765 36.265C21.044 43.559 26.995 49.971 26.989 50.513C26.983 51.056 22.79 55.638 17.67 60.695C8.66903 69.587 8.27703 70.165 5.77303 78.195C4.35003 82.763 3.49503 86.829 3.87403 87.232C4.25403 87.634 8.29703 86.74 12.86 85.244C20.793 82.643 21.554 82.12 30.287 73.262C35.309 68.168 39.88 64 40.445 64C41.011 64 47.444 69.958 54.741 77.24L68.009 90.481L79.745 78.745L91.481 67.009L78.24 53.741C70.958 46.444 65 39.957 65 39.325C65 38.694 66.237 37.094 67.75 35.769C69.263 34.444 74.721 29.005 79.881 23.681C88.908 14.367 89.24 13.865 88.674 10.377C88.35 8.383 87.329 5.917 86.405 4.896C84.331 2.603 78.847 1.472 76.355 2.823C75.335 3.376 69.55 8.807 63.5 14.891C57.45 20.975 52.044 25.963 51.486 25.976C50.928 25.989 44.634 20.15 37.5 13C30.366 5.85 24.29 0 23.998 0C23.706 0 18.307 5.176 11.999 11.501ZM36.736 15.235C48.297 26.769 50.704 30 47.735 30C45.736 30 21.658 5.362 22.433 4.109C22.81 3.499 23.422 3 23.795 3C24.167 3 29.99 8.506 36.736 15.235ZM84.545 6.455C87.263 9.172 87.575 11.058 85.842 14.295C83.221 19.192 82.563 19.133 77 13.5L71.712 8.146L75.106 6.077C79.527 3.381 81.553 3.462 84.545 6.455ZM32.891 19.391C41.497 28.018 45.015 32.195 44.469 33.141C43.038 35.624 30.518 47.955 29.405 47.977C28.803 47.99 27.562 47.173 26.647 46.162C25.09 44.442 25.111 44.209 26.968 42.529C28.06 41.541 28.691 40.309 28.371 39.791C28.051 39.273 26.788 39.79 25.564 40.94C23.382 42.99 23.304 42.994 21.622 41.134C20.072 39.423 20.056 39.087 21.453 37.69C23.713 35.43 23.455 33.278 21.171 35.345C18.901 37.399 17.604 37.433 15.984 35.481C14.953 34.238 15.05 33.602 16.523 31.975C18.888 29.361 17.598 28.149 14.975 30.523C13.081 32.237 12.822 32.25 11.286 30.714C9.75003 29.178 9.76303 28.919 11.477 27.025C13.878 24.372 12.625 23.125 9.97103 25.526C7.98003 27.328 7.87503 27.32 5.74003 25.185L3.55103 22.996L11.502 14.998C15.875 10.599 19.695 7 19.992 7C20.288 7 26.093 12.576 32.891 19.391ZM75.792 15.288C79.993 19.569 81.078 22 78.788 22C77.152 22 69 13.914 69 12.292C69 9.86 71.584 11 75.792 15.288ZM45.05 44.445L19.025 70.47L16.81 68.254L14.594 66.039L40.531 40.065L66.468 14.091L68.772 16.255L71.076 18.42L45.05 44.445ZM50.963 50.36L24.939 76.384L22.737 74.182L20.535 71.979L46.483 46.017L72.43 20.055L74.709 22.196L76.988 24.337L50.963 50.36ZM75.983 54.482C85.866 64.389 88.18 67.22 87.2 68.2C86.219 69.181 83.297 66.774 73.036 56.536C65.925 49.441 60.335 43.268 60.613 42.818C61.817 40.869 64.226 42.698 75.983 54.482ZM72.004 58.504L84.477 71.007L76.249 79.236L68.02 87.465L65.823 85.268C63.68 83.125 63.672 83.02 65.474 81.029C67.875 78.375 66.628 77.122 63.975 79.523C62.081 81.237 61.822 81.25 60.286 79.714C58.75 78.178 58.763 77.919 60.477 76.025C62.86 73.392 61.634 72.116 59.006 74.494C57.068 76.249 56.932 76.248 54.984 74.486L52.969 72.662L55.159 70.331C57.598 67.734 56.076 67.067 53.528 69.615C52.041 71.102 51.756 71.089 49.941 69.446C47.98 67.672 47.981 67.649 50.06 65.436C51.21 64.212 51.727 62.949 51.209 62.629C50.691 62.309 49.459 62.94 48.471 64.032C46.791 65.889 46.558 65.91 44.838 64.353C43.827 63.438 43 62.239 43 61.687C43 60.343 57.16 46 58.487 46C59.06 46 65.143 51.627 72.004 58.504ZM18.537 73.037C22.593 77.155 23.224 78.245 21.999 79.011C20.869 79.717 19.3 78.751 15.623 75.084C12.894 72.364 11.048 69.732 11.432 69.111C12.544 67.311 13.319 67.74 18.537 73.037ZM14.482 76.982C16.62 79.172 18.174 81.105 17.935 81.277C17.173 81.828 6.61803 84.951 6.36703 84.701C5.93803 84.272 9.48203 73.004 10.047 73.002C10.348 73.001 12.344 74.792 14.482 76.982Z" fill="#FECC52"/>
</svg>
