<svg width="118" height="60" viewBox="0 0 118 60" fill="none" xmlns="http://www.w3.org/2000/svg">
<path d="M116.5 57.7109H106.9V51.6903H108.9C109.433 51.6903 109.9 50.8159 109.9 50.2441V46.9815H112.867C113.4 46.9815 113.867 46.107 113.867 45.5353V30.5007C113.867 29.9625 113.433 29.9289 112.867 29.9289H109.833C109.867 29.9289 109.9 29.2898 109.9 29.1553V26.4646C109.9 25.9264 109.467 25.8928 108.9 25.8928H74.7333V1.44056C74.7333 1.13785 74.6 0.86878 74.3667 0.666974C74.1333 0.465167 73.8333 0.397898 73.5333 0.465167L32.1333 8.94104C31.6667 9.04194 31.3333 9.64736 31.3333 10.1182L31.3 11.8672H18.7333C18.2 11.8672 17.7333 11.9009 17.7333 12.439V16.5424H14.4C13.8667 16.5424 13.4 16.576 13.4 17.1142V24.4801C13.4 25.0183 13.8333 25.9264 14.4 25.9264H17.7333V27.9445H14.4C13.8667 27.9445 13.4 27.9781 13.4 28.5163V35.8822C13.4 36.4203 13.8333 37.3285 14.4 37.3285H17.7333V39.3465H14.4C13.8667 39.3465 13.4 39.3802 13.4 39.9183V47.2842C13.4 47.8224 13.8333 48.7305 14.4 48.7305H17.7333V57.7445H7.8V55.3901H10.6667C11.2 55.3901 11.6667 54.7174 11.6667 54.1793C11.6667 54.0448 11.6333 53.8429 11.6 53.742L8.13333 39.0775C8.03333 38.6402 7.63333 38.2702 7.16667 38.2702C6.7 38.2702 6.3 38.5729 6.2 39.0438L2.73333 53.742C2.66667 54.0448 2.73333 54.5829 2.93333 54.8183C3.13333 55.0538 3.4 55.4238 3.7 55.4238H6.8V57.7782H1.5C0.966667 57.7782 0.5 58.2154 0.5 58.7872C0.5 59.3254 0.933333 59.7962 1.5 59.7962H116.5C117.033 59.7962 117.5 59.359 117.5 58.7872C117.5 58.1482 117.067 57.7109 116.5 57.7109ZM4.96667 53.3048L7.2 43.8535L9.43333 53.3048H4.96667ZM112.5 44.8962H107.067L108.9 41.5328H112.5V44.8962ZM112.5 34.5032V35.8485H112L112.5 34.5032ZM112.5 36.8239V40.5237H109.433L111.433 36.8239H112.5ZM107.167 40.5237H103.533L101.533 36.8239H109.2L107.167 40.5237ZM106.633 41.5328L105.367 43.8535L104.1 41.5328H106.633ZM101.267 40.5237H93.2333L95.2333 36.8239H99.2333L101.267 40.5237ZM87.3 40.5237L85.3 36.8239H92.9667L90.9667 40.5237H87.3ZM90.3667 41.5328L89.1 43.8535L87.8333 41.5328H90.3667ZM71.2667 40.5237L69.2667 36.8239H76.9333L74.9333 40.5237H71.2667ZM74.3667 41.5328L73.1 43.8535L71.8333 41.5328H74.3667ZM65.8333 36.8239H66.9667L68.9667 40.5237H65.8V36.8239H65.8333ZM79.2 36.8239H83L85 40.5237H77.1667L79.2 36.8239ZM81.1 33.3596L82.4333 35.8485H79.7333L81.1 33.3596ZM95.7667 35.8149L97.2333 33.1242L98.7 35.8149H95.7667ZM93.5 35.8149H84.7333L82.5333 31.7788H95.7L93.5 35.8149ZM77.4667 35.8149H68.7L66.5 31.7788H79.6667L77.4667 35.8149ZM66.4333 35.8149H65.8333V34.3014L66.4333 35.8149ZM65.8333 41.5328H69.5333L71.3667 44.8962H65.8333V41.5328ZM76.6333 41.5328H85.5667L87.4 44.8962H74.8333L76.6333 41.5328ZM92.6667 41.5328H101.8L103.633 44.8962H90.8333L92.6667 41.5328ZM111.933 31.7788L109.733 35.8149H100.967L98.7667 31.7788H111.933ZM73.1667 2.31506V25.7246H65.1667V4.09768C65.1667 4.06405 65.1667 3.99678 65.1333 3.96314L73.1667 2.31506ZM64.1667 25.7246H60.8333C60.2667 25.7246 59.8333 25.7582 59.8333 26.2964V51.2867H56.5V5.74577L64.1667 4.16495V25.7246ZM55.5 51.2867H48.5V48.596H51.8333C52.4 48.596 52.8333 47.7215 52.8333 47.1497V39.7501C52.8333 39.1784 52.3667 39.1784 51.8333 39.1784H48.5V37.1603H51.8333C52.4 37.1603 52.8333 36.2858 52.8333 35.714V28.3144C52.8333 27.7427 52.3667 27.7427 51.8333 27.7427H48.5V25.7246H51.8333C52.4 25.7246 52.8333 24.8501 52.8333 24.2783V16.8788C52.8333 16.307 52.3667 16.307 51.8333 16.307H48.5V12.1699C48.5 11.7327 48.1667 11.3627 47.8333 11.2282V7.52839L55.5 5.94757V51.2867ZM19.8333 46.5779V41.1964H46.5V46.5779H19.8333ZM48.5 41.1964H50.8333V46.5779H48.5V41.1964ZM19.8333 29.7607H46.5V35.1422H19.8333V29.7607ZM48.5 29.7607H50.8333V35.1422H48.5V29.7607ZM19.8333 18.325H46.5V23.7065H19.8333V18.325ZM48.5 18.325H50.8333V23.7065H48.5V18.325ZM33.5 10.69L46.8333 7.7302V11.5982H33.4667L33.5 10.69ZM19.8333 13.6162H32.3C32.3333 13.6162 32.4 13.6162 32.4333 13.6498C32.5 13.6498 32.5667 13.6162 32.6 13.6162H46.4667V16.307H19.8V13.6162H19.8333ZM15.5 23.7065V18.325H17.8333V23.7065H15.5ZM19.8333 25.7246H46.5V27.7427H19.8333V25.7246ZM15.5 35.1422V29.7607H17.8333V35.1422H15.5ZM19.8333 37.1603H46.5V39.1784H19.8333V37.1603ZM15.5 46.5779V41.1964H17.8333V46.5779H15.5ZM19.8333 48.596H21.8333V57.6773H19.8333V48.596ZM22.8333 48.596H24.8333V57.6773H22.8333V48.596ZM25.8333 48.596H27.8333V57.6773H25.8333V48.596ZM28.8333 48.596H30.8333V57.6773H28.8333V48.596ZM31.8333 48.596H46.5V51.8585V57.6773H31.8333V48.596ZM48.5 53.3048H59.8333V57.6773H48.5V53.3048ZM61.8333 27.7427H108.5V28.9871C108.5 29.1217 108.533 29.7607 108.567 29.7607H64.8333C64.2667 29.7607 63.8333 29.7944 63.8333 30.3325V45.468C63.8333 46.0398 64.2667 46.9143 64.8333 46.9143H72.8C72.9 46.9143 73 46.9815 73.1 46.9815C73.2 46.9815 73.3 46.9143 73.4 46.9143H88.8C88.9 46.9143 89 46.9815 89.1 46.9815C89.2 46.9815 89.3 46.9143 89.4 46.9143H105.033C105.133 46.9143 105.233 46.9815 105.333 46.9815C105.433 46.9815 105.533 46.9143 105.633 46.9143H108.5V49.605H81.7C81.5333 49.605 81.4 49.4368 81.2667 49.5041L65.9 57.3746C65.8 57.4418 65.7 57.6773 65.6333 57.6773H61.8333V27.7427ZM81.9667 51.6231H85.8667V57.6773H70L81.9667 51.6231ZM86.8333 51.6231H92.5V57.6773H86.8333V51.6231ZM93.5 51.6231H99.1667V57.6773H93.5V51.6231ZM100.167 51.6231H105.5V57.6773H100.167V51.6231Z" fill="white" fill-opacity="0.3"/>
</svg>
