<svg width="120" height="33" viewBox="0 0 120 33" fill="none" xmlns="http://www.w3.org/2000/svg">
<path d="M118.263 30.9474H106.674V27.1263C109.832 27.0631 112.642 26.0526 112.642 19.9263C112.642 15.5052 110.653 0.915771 106.326 0.915771C101.968 0.915771 100.042 15.5052 100.042 19.9263C100.042 25.8316 102.6 27 105.758 27.1263V30.9474H98.1789V21.2526C98.1789 21.1579 98.4 21.0316 98.4631 20.8421C98.6526 20.3684 98.4316 19.8 97.9579 19.6105L72.3789 8.74735C72.1263 8.65261 71.8737 8.68419 71.621 8.77893L63.3158 12.3158H49.421C48.8842 12.3158 48.5684 12.6631 48.5684 13.1684V18.5368L46.0737 19.5789H46.0421L32.4 22.8631C31.8947 22.9895 31.6105 23.4947 31.7368 24C31.8 24.221 31.8316 24.4105 32.1474 24.5368V30.9474H24.2526V27.1263C27.4105 27.0316 30.0316 25.9579 30.0316 19.9263C30.0316 15.5052 28.0421 0.915771 23.7158 0.915771C19.3895 0.915771 17.4316 15.5052 17.4316 19.9263C17.4316 25.9579 20.1474 27.0316 23.3052 27.1263V30.9474H10.9895V27.1263C14.1474 27.0316 16.7684 25.9579 16.7684 19.9263C16.7684 15.5052 14.7789 0.915771 10.4526 0.915771C6.1263 0.915771 4.16841 15.5052 4.16841 19.9263C4.16841 25.9579 6.8842 27.0316 10.0421 27.1263V30.9474H1.73683C1.19999 30.9474 0.789459 31.3579 0.789459 31.8947C0.789459 32.4316 1.19999 32.8421 1.73683 32.8421H118.263C118.8 32.8421 119.211 32.4316 119.211 31.8947C119.211 31.3895 118.8 30.9474 118.263 30.9474ZM103.389 9.03156C104.684 3.97893 105.916 2.84209 106.263 2.84209C106.611 2.84209 107.842 3.97893 109.137 9.03156C110.053 12.6 110.684 17.0842 110.684 19.9263C110.684 24.8526 108.853 25.2316 106.263 25.2316C103.674 25.2316 101.842 24.8526 101.842 19.9263C101.842 17.0842 102.474 12.6 103.389 9.03156ZM20.8105 9.03156C22.1052 3.97893 23.3368 2.84209 23.6842 2.84209C24.0316 2.84209 25.2631 3.97893 26.5579 9.03156C27.4737 12.6 28.1052 17.0842 28.1052 19.9263C28.1052 24.8526 26.2737 25.2316 23.6842 25.2316C21.0947 25.2316 19.2631 24.8526 19.2631 19.9263C19.2631 17.0842 19.8947 12.6 20.8105 9.03156ZM7.54735 9.03156C8.84209 3.97893 10.0737 2.84209 10.421 2.84209C10.7684 2.84209 12 3.97893 13.2947 9.03156C14.2105 12.6 14.8421 17.0842 14.8421 19.9263C14.8421 24.8526 13.0105 25.2316 10.421 25.2316C7.83156 25.2316 5.99999 24.8526 5.99999 19.9263C5.99999 17.0842 6.63156 12.6 7.54735 9.03156ZM97.1368 20.3052L97.5158 20.4631H97.4526L97.1368 20.3052ZM50.4631 14.2105H58.8631L50.4631 17.7474V14.2105ZM33.0947 26.2105H46.0421V27.1579H33.0947V26.2105ZM46.0421 21.5684V23.3684H38.8105L46.0421 21.5684ZM46.0421 24.3158V25.2631H33.0947V24.6631L34.8947 24.3158H46.0421ZM33.0947 28.1052H46.0421V29.0526H33.0947V28.1052ZM33.0947 30H46.0421V30.9474H33.0947V30ZM82.0421 30.6316V27.4737H83.9368V30.6316H82.0421ZM84.3158 26.5263H81.4737C81.221 26.5263 81.0947 26.6526 81.0947 26.9052V30.9474H76.0421V24H90.5684V30.9474H84.8842V26.9368C84.8842 26.6526 84.5684 26.5263 84.3158 26.5263ZM91.5158 23.8737C91.8316 23.7474 92.1158 23.4316 92.1158 23.021C92.1158 22.4842 91.6421 22.1052 91.1368 22.1052H75.6631C75.1263 22.1052 74.7474 22.4842 74.7474 23.021C74.7474 23.3052 74.7789 23.4947 75.0947 23.6842V30.9474H46.9895V21.2842L48.8526 20.4631L49.6737 20.1158C49.7052 20.1158 49.7368 20.1158 49.7368 20.0842C49.7684 20.0842 49.8 20.0526 49.8316 20.0526L71.9368 10.6421L95.1158 20.4631L97.1684 21.3474V30.9474H91.4842V23.8737H91.5158Z" fill="white" fill-opacity="0.3"/>
</svg>
