<svg width="118" height="73" viewBox="0 0 118 73" fill="none" xmlns="http://www.w3.org/2000/svg">
<path d="M116.7 70.6668H109.4V68.2668H113.133C113.7 68.2668 114.167 68.0001 114.167 67.4334C114.167 67.3001 114.133 67.2668 114.1 67.1668L110.533 52.2001C110.433 51.7334 110 51.4334 109.533 51.4334C109.067 51.4334 108.633 51.7668 108.533 52.2334L104.933 67.3668C104.867 67.6668 104.933 67.8334 105.133 68.0668C105.333 68.3001 105.633 68.2668 105.933 68.2668H108.4V70.6668H99.4667V68.2668H103.2C103.767 68.2668 104.233 68.0001 104.233 67.4334C104.233 67.3001 104.2 67.2668 104.167 67.1668L100.6 52.2001C100.5 51.7334 100.067 51.4334 99.6 51.4334C99.1333 51.4334 98.7 51.7668 98.6 52.2334L95 67.3668C94.9333 67.6668 95 67.8334 95.2 68.0668C95.4 68.3001 95.7 68.2668 96 68.2668H98.4667V70.6668H92.6333V49.3668H99.9333C100.5 49.3668 100.2 49.2668 100.2 48.7001V25.3668C100.2 24.8001 100.5 23.9668 99.9333 23.9668H92.6333V2.0001C92.6333 1.43343 92.9334 0.600098 92.3667 0.600098H69C68.4333 0.600098 67.2 1.43343 67.2 2.0001V25.3668C67.2 25.9334 68.4333 26.0334 69 26.0334H74.7667V47.3334H69C68.4333 47.3334 67.2 48.1668 67.2 48.7334V70.6668H64.1V49.0334C64.1 48.4668 64.4 47.6334 63.8333 47.6334H50V19.5001C50 18.9334 50.3 18.1001 49.7333 18.1001H16.0667C15.5 18.1001 14.2667 18.9334 14.2667 19.5001V70.6668H7.4V68.2668H11.1333C11.7 68.2668 12.1667 68.0001 12.1667 67.4334C12.1667 67.3001 12.1333 67.2668 12.1 67.1668L8.53333 52.2001C8.43333 51.7334 8 51.4334 7.53333 51.4334C7.06667 51.4334 6.63333 51.7668 6.53333 52.2334L2.93333 67.3668C2.86667 67.6668 2.93333 67.8334 3.13333 68.0668C3.33333 68.3001 3.63333 68.2668 3.93333 68.2668H6.4V70.6668H1.3C0.733333 70.6668 0.266666 71.1334 0.266666 71.7001C0.266666 72.2668 0.733333 72.7334 1.3 72.7334H22.2667H63.8333H69H92.3667H116.767C117.333 72.7334 117.8 72.2668 117.8 71.7001C117.733 71.1334 117.267 70.6668 116.7 70.6668ZM107.233 66.2001L109.533 56.5668L111.833 66.2001H107.233ZM97.2667 66.2001L99.5667 56.5668L101.867 66.2001H97.2667ZM5.23333 66.2001L7.53333 56.5668L9.83333 66.2001H5.23333ZM55.5 49.7334V64.1668H49.6667V49.7334H55.5ZM42.7667 64.1334V49.7001H48.6V64.1334H42.7667ZM35.9 64.1334V49.7001H41.7333V64.1334H35.9ZM29.0333 64.1334V49.7001H34.8667V64.1334H29.0333ZM47.9333 20.1668V47.6668H40.0667L32.3333 20.2001H47.9333V20.1668ZM16.3333 20.1668H31.2667L39 47.6668H22.2333C21.6667 47.6668 20.4333 48.5001 20.4333 49.0668V70.6668H16.3333V20.1668ZM22.5 49.7334H28V64.1668H27.4C26.8333 64.1668 26.3667 64.6334 26.3667 65.2001C26.3667 65.7668 26.8333 66.2334 27.4 66.2334H28V70.6668H22.5V49.7334ZM29.0333 66.2001H31.4333V70.6668H29.0333V66.2001ZM32.4667 66.2001H38.3V70.6668H32.4667V66.2001ZM39.3333 66.2001H45.1667V70.6668H39.3333V66.2001ZM46.2 66.2001H52.0333V70.6668H46.2V66.2001ZM53.0667 66.2001H55.4667V70.6668H53.0667V66.2001ZM56.5333 66.2001H59C59.5667 66.2001 60.0333 65.7334 60.0333 65.1668C60.0333 64.6001 59.5667 64.1334 59 64.1334H56.5333V49.7001H62V70.6668H56.5V66.2001H56.5333ZM87.3 47.3001L84.1667 26.0001H87.6L90.7333 47.3001H87.3ZM98.0667 26.0334V47.3334H92.3H91.7333L88.6 26.0334H92.3H98.0667ZM77.1 23.9668L77.9667 20.8001C78.0333 20.8334 78.1333 20.8668 78.2 20.8668H90.5V23.9668H77.1ZM82.2 5.73343C82.2667 5.73343 82.3 5.76676 82.3667 5.76676H90.5334V8.5001H81.4333L82.2 5.73343ZM81.1333 9.53343H90.5334V12.2668H80.3667L81.1333 9.53343ZM80.1 13.2668C80.1667 13.3001 80.2333 13.3001 80.3 13.3001H90.5334V16.0334H79.3333L80.1 13.2668ZM79.0333 17.1001H90.5334V19.8334H78.2667L79.0333 17.1001ZM90.5334 4.73343H82.5L83.0667 2.66676H90.5334V4.73343ZM69.2333 23.9668V2.66676H82L76.0667 23.9668H69.2333ZM76.7667 26.0334H83.1L86.2333 47.3334H76.7667V26.0334ZM81.9 59.6668H69.2333V56.9334H81.5L81.9 59.6668ZM69.2333 64.5001H82.6L83 67.2334H69.2333V64.5001ZM69.2333 63.4668V60.7334H82C82 60.7334 82 60.7334 82.0333 60.7334L82.4333 63.5001H69.2333V63.4668ZM69.2333 55.9001V53.1668H80.9333L81.3333 55.9001H69.2333ZM69.2333 49.3668H76.5333H80.4L80.8 52.1001H69.2667V49.3668H69.2333ZM69.2333 70.6668V68.2668H83.1667L83.5333 70.6668H69.2333ZM84.5333 70.6668L82.4667 56.8001C82.5 56.7334 82.5 56.7668 82.5 56.6668C82.5 56.5334 82.4333 56.2668 82.3667 56.2001L81.3667 49.3668H90.4667V70.6668H84.5333Z" fill="white" fill-opacity="0.3"/>
</svg>
