<svg width="118" height="91" viewBox="0 0 118 91" fill="none" xmlns="http://www.w3.org/2000/svg">
<path d="M116.705 90.9408C117.271 90.9408 117.703 90.5106 117.703 89.9479C117.703 89.3853 117.271 88.955 116.705 88.955H113.479V87.6643C114.477 87.4657 115.807 86.6383 115.807 84.1892C115.807 83.3287 115.707 81.1444 115.441 79.1917C115.142 76.9743 114.51 74.3928 112.714 74.3928H112.647C110.818 74.3928 110.253 76.9743 109.92 79.1917C109.654 81.1113 109.621 83.2956 109.621 84.1561C109.621 86.9031 111.151 87.6312 112.481 87.6974V88.955H106.827V87.6643C107.825 87.4657 109.155 86.6383 109.155 84.1892C109.155 83.3287 109.055 81.1444 108.789 79.1917C108.49 76.9743 107.858 74.3928 106.062 74.3928H105.996C104.166 74.3928 103.601 76.9743 103.268 79.1917C103.002 81.1113 102.969 83.2956 102.969 84.1561C102.969 86.9031 104.499 87.6312 105.829 87.6974V88.955H100.175V87.6643C101.173 87.4657 102.503 86.6383 102.503 84.1892C102.503 83.3287 102.404 81.1444 102.137 79.1917C101.838 76.9743 101.206 74.3928 99.4102 74.3928H99.3437C97.5144 74.3928 96.949 76.9743 96.6164 79.1917C96.3503 81.1113 96.3171 83.2956 96.3171 84.1561C96.3171 86.9031 97.847 87.6312 99.1774 87.6974V88.955H95.918C94.122 86.6383 83.5455 71.1163 83.479 6.54581C84.8093 6.11556 85.8071 4.85791 85.8071 3.36858C85.8071 1.5152 84.3104 0.0258789 82.4479 0.0258789C80.5854 0.0258789 79.122 1.5483 79.122 3.36858C79.122 4.891 80.2528 6.18175 81.5832 6.5789V77.1067L80.2528 75.9152V18.2618C80.2528 17.9971 80.1198 17.6661 79.9202 17.5006C79.7206 17.302 79.4213 17.1366 79.1885 17.1366L68.9446 17.2027C68.4457 17.2027 68.0466 17.5999 67.9468 18.0963L61.561 59.4995L20.918 23.6565C20.6186 23.3917 20.2528 23.3255 19.8869 23.491C19.5211 23.6565 19.3548 24.0205 19.3548 24.3846V88.922H14.6985V87.6312C15.6962 87.4326 17.0266 86.6052 17.0266 84.1561C17.0266 83.2956 16.9268 81.1113 16.6608 79.1586C16.3614 76.9412 15.7295 74.3597 13.9335 74.3597H13.867C12.0377 74.3597 11.4723 76.9412 11.1397 79.1586C10.8736 81.0782 10.8404 83.2625 10.8404 84.123C10.8404 86.87 12.3703 87.5981 13.7007 87.6643V88.922H8.04657V87.6312C9.04435 87.4326 10.3747 86.6052 10.3747 84.1561C10.3747 83.2956 10.2749 81.1113 10.0089 79.1586C9.70954 76.9412 9.07761 74.3597 7.2816 74.3597H7.21508C5.38581 74.3597 4.8204 76.9412 4.48781 79.1586C4.22173 81.0782 4.18847 83.2625 4.18847 84.123C4.18847 86.87 5.71841 87.5981 7.04878 87.6643V88.922H1.2949C0.729492 88.922 0.297119 89.3522 0.297119 89.9148C0.297119 90.4775 0.729492 90.9077 1.2949 90.9077H116.705V90.9408ZM7.18182 85.6454C6.51663 85.6454 6.11752 85.5793 6.11752 84.123C6.11752 80.8465 6.61641 77.3714 7.21508 76.544C7.78049 77.4045 8.31264 80.8465 8.31264 84.123C8.31264 85.5793 7.91353 85.6454 7.24834 85.6454H7.18182ZM13.8337 85.6454C13.1685 85.6454 12.7694 85.5793 12.7694 84.123C12.7694 80.8465 13.2683 77.3714 13.867 76.544C14.4324 77.4045 14.9645 80.8465 14.9645 84.123C14.9645 85.5793 14.5654 85.6454 13.9002 85.6454H13.8337ZM26.3392 88.955C26.8049 81.6739 32.8914 75.8821 40.3415 75.8821C47.7916 75.8821 53.8781 81.6739 54.3437 88.955H26.3392ZM56.9379 88.955H56.3393C55.8736 80.681 48.8891 73.8963 40.3415 73.8963C31.7938 73.8963 24.8093 80.681 24.3437 88.955H21.3171V26.6351L61.1951 61.8163L56.9379 88.955ZM73.5344 88.955H58.9668L59.8315 83.3287H73.5344V88.955ZM73.5344 82.3358H59.9645L60.663 77.7024H73.5011V82.3358H73.5344ZM73.5344 72.738V76.7095H60.8625L61.561 72.076H72.8027H73.5344V72.738ZM73.5344 70.0903V71.0832H71.6719H61.7273L62.4257 66.4497H66.4169H69.4102H73.5344V70.0903ZM73.5344 65.4568H68.3126H65.3193H62.592L62.9246 63.3718L63.2905 61.022L63.3237 60.8234H73.5676V65.4568H73.5344ZM73.5344 59.8305H63.4568L64.1552 55.197H73.5344V59.8305ZM73.5344 54.2042H64.3215L65.02 49.5707H73.5344V54.2042ZM73.5344 48.5778H65.1863L65.8847 43.9444H73.5344V48.5778ZM73.5344 42.9515H66.051L66.7495 38.3181H73.5344V42.9515ZM73.5344 37.3252H66.9158L67.6142 32.6917H73.5344V37.3252ZM73.5344 31.6988H67.7805L68.4789 27.0654H73.5011V31.6988H73.5344ZM73.5344 26.0725H68.6452L69.7428 19.2216L73.5344 19.2547V26.0725ZM78.1907 74.1942V76.8419V88.955H74.5322V73.6316V70.9839V19.2547H78.1907V74.1942ZM81.5166 88.955H80.1863V78.6291L81.5166 79.8205V88.955ZM82.3814 4.75862C81.6164 4.75862 81.0178 4.16289 81.0178 3.40168C81.0178 2.64047 81.6164 2.04474 82.3814 2.04474C83.1464 2.04474 83.745 2.64047 83.745 3.40168C83.745 4.16289 83.1464 4.75862 82.3814 4.75862ZM92.0266 86.4398C92.5588 87.5319 93.0244 88.3262 93.4235 88.9882H91.8936H83.5122V81.5746V78.9269V49.3059C85.8404 70.5205 89.4657 81.2437 92.0266 86.4398ZM99.3104 85.6454C98.6452 85.6454 98.2461 85.5793 98.2461 84.123C98.2461 80.8465 98.745 77.3714 99.3437 76.544C99.9091 77.4045 100.441 80.8465 100.441 84.123C100.441 85.5793 100.042 85.6454 99.377 85.6454H99.3104ZM105.962 85.6454C105.297 85.6454 104.898 85.5793 104.898 84.123C104.898 80.8465 105.397 77.3714 105.996 76.544C106.561 77.4045 107.093 80.8465 107.093 84.123C107.093 85.5793 106.694 85.6454 106.029 85.6454H105.962ZM112.614 85.6454C111.949 85.6454 111.55 85.5793 111.55 84.123C111.55 80.8465 112.049 77.3714 112.647 76.544C113.213 77.4045 113.745 80.8465 113.745 84.123C113.745 85.5793 113.346 85.6454 112.681 85.6454H112.614Z" fill="white" fill-opacity="0.3"/>
</svg>
