<svg width="118" height="46" viewBox="0 0 118 46" fill="none" xmlns="http://www.w3.org/2000/svg">
<path d="M116.167 43.7667H109.167V40.2334C114.833 40.1 114.967 34.7334 114.967 32.9667C114.967 32.9 114.967 26.9667 114.167 21.1334C113.2 14 111.533 10.8 108.967 10.8H108.833C106.267 10.8 104.6 14 103.633 21.1334C102.833 27 102.833 32.9667 102.833 33.0334C102.833 34.7667 102.867 39.8334 108.2 40.2334V43.8H101.867V31.5334C101.867 30.9667 101.4 30.8 100.867 30.8H98.6666C98.4 26.1334 97.3 18.8 92.7333 18.8H92.6C88.0333 18.8 86.9 26.1334 86.6666 30.8H81.1666V13.1667C81.1666 13.1334 81.1666 13.0667 81.1666 13.0334L83.4 13.4667C83.4666 13.4667 83.5333 13.5 83.6 13.5C84.0666 13.5 84.5 13.1667 84.5666 12.7C84.6666 12.1667 84.3 11.6334 83.7666 11.5334L25.3 0.266705C24.7666 0.166705 24.2333 0.533372 24.1333 1.06671C24.0333 1.60004 24.4 2.13337 24.9333 2.23337L26.5 2.53337V19.1H19.5C18.9333 19.1 18.5 19.2667 18.5 19.8334V43.1667C18.5 43.3 18.5333 43.7667 18.5666 43.7667H10.8333V40.6667C13.8333 40.6 16.5333 39.5667 16.5333 33.7334C16.5333 30.8334 15.9333 26.4667 15 22.9C13.7333 17.9667 12.2333 15.5667 10.4333 15.5667C8.59998 15.5667 7.09998 17.9667 5.86665 22.9C4.93331 26.4334 4.33331 30.8 4.33331 33.7C4.33331 39.4334 6.83331 40.5334 9.83331 40.6334V43.7667H1.83331C1.26665 43.7667 0.833313 44.2 0.833313 44.7667C0.833313 45.3334 1.26665 45.7667 1.83331 45.7667H116.167C116.733 45.7667 117.167 45.3334 117.167 44.7667C117.167 44.2 116.733 43.7667 116.167 43.7667ZM105.6 21.3667C106.5 14.9 107.9 12.7667 108.833 12.7667H108.967C109.9 12.7667 111.3 14.9 112.2 21.3667C113 27.1 113 32.9334 113 33C113 36.8 111.867 38.3667 109 38.3667L108.967 38.4334H108.867C106 38.4334 104.867 36.9 104.867 33.1C104.8 33.0334 104.833 27.1 105.6 21.3667ZM6.33331 33.7C6.33331 31 6.93331 26.7334 7.79998 23.3667C9.03331 18.5667 10.2 17.5334 10.4333 17.5334C10.6666 17.5334 11.8666 18.5667 13.0666 23.3667C13.9333 26.7334 14.5333 31 14.5333 33.7C14.5333 38.3 12.9 38.6334 10.4333 38.6334C7.93331 38.6667 6.33331 38.3 6.33331 33.7ZM88.6666 30.6334C88.9666 25.9667 90.1 20.7667 92.6 20.7667H92.7333C95.2333 20.7667 96.3666 25.9334 96.6666 30.6334C96.7 31.3334 96.7333 31.9334 96.7333 32.5667C96.7333 32.7334 96.7333 32.8667 96.7333 33.0334C96.7333 36.8334 95.6 38.2 92.7333 38.2L92.7 38.1H92.6C89.7333 38.1 88.6 36.7 88.6 32.9C88.6 32.7334 88.6 32.6667 88.6 32.5C88.6 31.8667 88.6333 31.3 88.6666 30.6334ZM71.5 34.7667H70.5V10.9667L79.3 12.6667C79.2 12.8 79.1666 12.9667 79.1666 13.1667V34.7667H71.5ZM69.5 34.7667H59.8333V8.93337L69.5 10.8V34.7667ZM58.8333 34.7667H49.1666V6.86671L58.8333 8.73337V34.7667ZM48.1666 34.7667H38.8333V4.90004L48.1666 6.70004V34.7667ZM37.8333 4.70004V34.7667H28.5V19.8334V2.90004L37.8333 4.70004ZM20.5 32.4334H26.5V34.4334H20.5V32.4334ZM20.5 29.4334H26.5V31.4334H20.5V29.4334ZM26.5 28.4334H20.5V26.4334H26.5V28.4334ZM20.5 35.4334H26.5V35.5V37.7667H20.5V35.4334ZM26.5 25.4334H20.5V23.4334H26.5V25.4334ZM20.5 38.7667H26.5V40.7667H20.5V38.7667ZM20.5 21.1H26.5V22.4334H20.5V21.1ZM20.5 43.1667V41.7667H26.5V43.7667H20.4333C20.4666 43.7667 20.5 43.2667 20.5 43.1667ZM66.5 43.7667H64.8333V39.4334H66.5V43.7667ZM67 38.4334H64.3333C64.0666 38.4334 63.8333 38.3667 63.8333 38.6667V43.7667H28.5V36.7667H70.5V43.7667H67.5V38.6667C67.5 38.3667 67.2666 38.4334 67 38.4334ZM72.5 36.7667H80.1666C80.7333 36.7667 81.1666 36.0334 81.1666 35.5V32.7667H86.6C86.6 32.7667 86.6 32.9667 86.6 33.1334C86.6 34.9 86.5 39.9667 92.1666 40.2334V43.7667H72.5V36.7667ZM93.1666 40.2334C98.8333 39.9667 98.7333 34.8667 98.7333 33.1334C98.7333 32.9667 98.7333 32.7667 98.7333 32.7667H99.8333V43.7667H93.1666V40.2334Z" fill="white" fill-opacity="0.3"/>
</svg>
